#!OML:ASF H:\MichaelJackson\Top Level 1\Subject 1\Session 1\male.ASF
:FULLY-SPECIFIED
:DEGREES
336
root 18.0037 16.8743 11.8621 -359.749 34.8761 -7.59064
lowerback -0.881956 -3.69135 -4.43796
upperback -0.41469 -4.89846 2.32816
thorax 0.642708 -2.46387 4.79058
lowerneck -6.65487 -13.3503 -6.18401
upperneck 25.4686 -18.9736 4.60182
head 10.267 -8.89025 0.430289
rclavicle 3.83654e-014 -6.36111e-015
rhumerus -58.1175 3.48101 -89.4568
rradius 57.4971
rwrist 12.2338
rhand -33.4913 -20.7167
rfingers 7.12502
rthumb -6.68852 -50.5911
lclavicle 3.83654e-014 -6.36111e-015
lhumerus -39.1819 -21.4147 103.53
lradius 52.4715
lwrist 17.1893
lhand -7.80768 11.3618
lfingers 7.12502
lthumb 18.0939 40.5402
rfemur -30.2121 3.33883 5.04777
rtibia 62.8351
rfoot 21.6111 18.1498
rtoes 1.26195
lfemur -13.9113 9.26507 -8.42894
ltibia 40.9454
lfoot -26.5593 -3.74866
ltoes -12.606
337
root 17.9119 16.8698 11.933 -360.133 37.2618 -7.76652
lowerback -1.0299 -3.88697 -4.56375
upperback -0.441613 -5.15305 2.34175
thorax 0.739698 -2.59372 4.85618
lowerneck -6.45003 -13.5915 -6.45488
upperneck 25.5538 -19.3313 4.78532
head 10.3343 -9.05781 0.4897
rclavicle 7.38734e-014 7.15625e-015
rhumerus -58.4545 4.02341 -89.5535
rradius 57.3579
rwrist 12.5831
rhand -33.0157 -19.9229
rfingers 7.12502
rthumb -6.22937 -49.8114
lclavicle 7.38734e-014 7.15625e-015
lhumerus -38.9496 -21.5059 103.58
lradius 52.1795
lwrist 17.0668
lhand -7.73158 11.0766
lfingers 7.12502
lthumb 18.1671 40.2482
rfemur -28.5345 3.39802 5.06235
rtibia 62.7604
rfoot 22.0401 18.9582
rtoes 1.57634
lfemur -14.3737 10.3937 -8.17951
ltibia 41.1507
lfoot -26.2637 -3.53876
ltoes -12.9939
338
root 17.8208 16.8648 12.0042 -360.525 39.597 -7.9501
lowerback -1.18085 -4.08517 -4.69232
upperback -0.458017 -5.41046 2.35182
thorax 0.850609 -2.72567 4.9173
lowerneck -6.2411 -13.8162 -6.70863
upperneck 25.6207 -19.664 4.95472
head 10.3909 -9.21474 0.546016
rclavicle 3.85891e-014 1.59028e-014
rhumerus -58.7917 4.59115 -89.6654
rradius 57.2358
rwrist 13.0406
rhand -32.5351 -19.1513
rfingers 7.12502
rthumb -5.76535 -49.0529
lclavicle 3.85891e-014 1.59028e-014
lhumerus -38.7002 -21.5333 103.578
lradius 51.8771
lwrist 17.0077
lhand -7.67612 10.8753
lfingers 7.12502
lthumb 18.2205 40.0419
rfemur -26.8303 3.49517 5.12239
rtibia 62.5264
rfoot 22.3883 19.9152
rtoes 1.86844
lfemur -14.8754 11.4019 -7.90876
ltibia 41.3505
lfoot -25.9976 -3.76709
ltoes -13.0349
339
root 17.7299 16.8595 12.0757 -360.944 41.8792 -8.17079
lowerback -1.32143 -4.2911 -4.81914
upperback -0.472946 -5.67842 2.38235
thorax 0.961603 -2.86314 4.99726
lowerneck -6.02849 -14.0175 -6.97733
upperneck 25.6797 -19.9566 5.10554
head 10.4423 -9.35688 0.603888
rclavicle 5.9859e-014 -1.27222e-014
rhumerus -59.1414 5.23397 -89.7921
rradius 57.1419
rwrist 13.5368
rhand -32.0677 -18.4684
rfingers 7.12502
rthumb -5.31408 -48.3818
lclavicle 5.9859e-014 -1.27222e-014
lhumerus -38.4349 -21.4649 103.544
lradius 51.539
lwrist 17.0029
lhand -7.68213 10.6846
lfingers 7.12502
lthumb 18.2147 39.8518
rfemur -25.1039 3.6204 5.25957
rtibia 62.1455
rfoot 22.5529 20.9592
rtoes 2.16006
lfemur -15.4275 12.2874 -7.58452
ltibia 41.5631
lfoot -25.7475 -4.45158
ltoes -12.8307
340
root 17.6391 16.8547 12.1476 -361.418 44.0932 -8.47256
lowerback -1.45657 -4.48936 -4.89826
upperback -0.486832 -5.93681 2.42791
thorax 1.06758 -2.99568 5.06546
lowerneck -5.81819 -14.2059 -7.23657
upperneck 25.7386 -20.2272 5.23343
head 10.4902 -9.49049 0.655558
rclavicle -5.35228e-014 -4.77083e-015
rhumerus -59.5054 5.92046 -89.9476
rradius 57.0852
rwrist 14.0157
rhand -31.6133 -17.9334
rfingers 7.12502
rthumb -4.87539 -47.8573
lclavicle -5.35228e-014 -4.77083e-015
lhumerus -38.1548 -21.3392 103.477
lradius 51.1498
lwrist 17.0161
lhand -7.74184 10.5367
lfingers 7.12502
lthumb 18.1572 39.7092
rfemur -23.3703 3.8154 5.51465
rtibia 61.6264
rfoot 22.5162 21.949
rtoes 2.65969
lfemur -16.0419 13.0549 -7.17431
ltibia 41.8022
lfoot -25.4945 -5.58393
ltoes -12.4277
341
root 17.5481 16.8503 12.219 -361.935 46.2446 -8.85328
lowerback -1.59049 -4.684 -4.92722
upperback -0.509345 -6.19114 2.48588
thorax 1.16058 -3.12549 5.11795
lowerneck -5.61934 -14.3807 -7.48927
upperneck 25.8121 -20.4749 5.3382
head 10.5417 -9.61457 0.700317
rclavicle -8.52289e-015 -7.95139e-015
rhumerus -59.8858 6.66017 -90.1396
rradius 57.0693
rwrist 14.4032
rhand -31.1474 -17.5124
rfingers 7.12502
rthumb -4.42547 -47.4462
lclavicle -8.52289e-015 -7.95139e-015
lhumerus -37.8609 -21.1409 103.37
lradius 50.7005
lwrist 16.995
lhand -7.82735 10.3956
lfingers 7.12502
lthumb 18.075 39.5758
rfemur -21.6513 4.06267 5.88095
rtibia 60.9765
rfoot 22.2778 22.8313
rtoes 3.26084
lfemur -16.7452 13.6932 -6.69979
ltibia 42.079
lfoot -25.1965 -7.11991
ltoes -11.8199
342
root 17.4562 16.8465 12.2899 -362.518 48.3156 -9.34359
lowerback -1.72237 -4.86507 -4.8937
upperback -0.537769 -6.42862 2.56153
thorax 1.24007 -3.24612 5.15423
lowerneck -5.4457 -14.5472 -7.73328
upperneck 25.9043 -20.7087 5.42474
head 10.6017 -9.73181 0.736903
rclavicle 4.01545e-014 5.56597e-015
rhumerus -60.2658 7.43773 -90.3571
rradius 57.0874
rwrist 14.6871
rhand -30.6658 -17.1791
rfingers 7.12502
rthumb -3.96039 -47.1221
lclavicle 4.01545e-014 5.56597e-015
lhumerus -37.5364 -20.883 103.225
lradius 50.1854
lwrist 16.9056
lhand -7.93937 10.2784
lfingers 7.12502
lthumb 17.9672 39.4685
rfemur -19.9712 4.38139 6.37814
rtibia 60.1993
rfoot 21.8963 23.5249
rtoes 3.91299
lfemur -17.5406 14.2226 -6.15356
ltibia 42.3956
lfoot -24.8111 -9.00433
ltoes -10.9822
343
root 17.3629 16.8435 12.3593 -363.168 50.2848 -9.94819
lowerback -1.84802 -5.02076 -4.77479
upperback -0.575143 -6.63403 2.63892
thorax 1.29357 -3.34924 5.14697
lowerneck -5.30751 -14.7128 -7.95506
upperneck 26.025 -20.9427 5.49701
head 10.6756 -9.84631 0.761622
rclavicle 2.35498e-013 1.03368e-014
rhumerus -60.6408 8.20575 -90.5926
rradius 57.1309
rwrist 14.9371
rhand -30.1175 -16.8913
rfingers 7.12502
rthumb -3.43092 -46.8434
lclavicle 2.35498e-013 1.03368e-014
lhumerus -37.2043 -20.5882 103.031
lradius 49.6276
lwrist 16.7392
lhand -8.07209 10.1612
lfingers 7.12502
lthumb 17.8395 39.363
rfemur -18.3579 4.79375 6.99539
rtibia 59.2957
rfoot 21.4535 23.9594
rtoes 4.69878
lfemur -18.4247 14.6524 -5.55369
ltibia 42.7432
lfoot -24.2945 -11.1395
ltoes -9.92845
